Source : NGB (Thanks)
 
http://www.imdb.com/title/tt2313189/


Format : AVI
Format/Info : Audio Video Interleave
File size : 700 MiB
Duration : 1h 33mn
Overall bit rate : 1 048 Kbps
Writing library : VirtualDub build 32842/release

Video
ID : 0
Format : MPEG-4 Visual
Format profile : Advanced Simple@L5
Format settings, BVOP : 4
Format settings, QPel : No
Format settings, GMC : No warppoints
Format settings, Matrix : Default (H.263)
Muxing mode : Packed bitstream
Codec ID : XVID
Codec ID/Hint : XviD
Duration : 1h 33mn
Bit rate : 911 Kbps
Width : 640 pixels
Height : 352 pixels
Display aspect ratio : 16:9
Frame rate : 23.976 fps
Color space : YUV
Chroma subsampling : 4:2:0
Bit depth : 8 bits
Scan type : Progressive
Compression mode : Lossy
Bits/(Pixel*Frame) : 0.169
Stream size : 608 MiB (87%)
Writing library : XviD 64

Audio
ID : 1
Format : MPEG Audio
Format version : Version 1
Format profile : Layer 3
Codec ID : 55
Codec ID/Hint : MP3
Duration : 1h 33mn
Bit rate mode : Constant
Bit rate : 128 Kbps
Channel(s) : 2 channels
Sampling rate : 44.1 KHz
Compression mode : Lossy
Stream size : 85.5 MiB (12%)
Alignment : Split accross interleaves
Interleave, duration : 42 ms (1.00 video frame)
Interleave, preload duration : 500 ms
Writing library : LAME3.99r
Encoding settings : -m s -V 4 -q 3 -lowpass 17 -b 128


Plot
Desperate to meet new girls, six down-on-their-luck guys come up with the ultimate plan to hook up - cast a fake movie. When tons of hot chicks show up for the audition, it's a matter of who's willing to go the farthest to get the part.

 
http://www.shotpix.com/images/63951551623966421314.png 
http://www.shotpix.com/images/24630329173767700591.png 
http://www.shotpix.com/images/12392878852786385847.png